<svg xmlns="http://www.w3.org/2000/svg" viewBox="0 0 1022.52 150.96">
  <path d="M144.31 27.6l-63.03-4.19 13.08 6.79-2.86 53.96L72.01 40.3l-30.4 44.37 9.33-55.8 15.23-9.33L.03 25.38l11.68 5.46 10.28 74.9-12.88 5.33 37.83 2.03 14.92-33.51 14.6 37.45 48.87-9.14-17.58-4.51 23.68-69.82zM214.39 109.87l-7.3-5.59-1.9-53.19 9.33-4.25-27.29-2.98 4 19.61c-3.17-6.35-7.08-11.12-11.71-14.31-4.63-3.19-10-4.79-16.09-4.79-8.04 0-14.71 3.59-20 10.76-5.29 7.17-7.93 16.32-7.93 27.45 0 8.72 2.46 16.03 7.4 21.93 4.93 5.9 10.99 8.85 18.19 8.85 6.01 0 11.56-1.63 16.66-4.89s9.59-8.08 13.49-14.47l-4.76 19.36 27.91-3.49zm-30.91-28.34c-1.35.53-2.67.79-3.94.79-3.55 0-6.55-1.26-8.98-3.78-2.43-2.52-3.65-5.64-3.65-9.36 0-1.9.25-3.58.76-5.01.51-1.44 1.31-2.79 2.41-4.06 3.09 1.35 6.1 3.63 9.05 6.82 2.94 3.2 5.77 7.29 8.47 12.28-1.39 1.01-2.77 1.79-4.12 2.32z"/>
  <path d="M251.27 106.5l11.62-89.82-49.83 14.03 13.14 2.35 1.14 72.94-14.54 8.31 52.82-2.6z"/>
  <path d="M318.56 44.49c-5.25 0-10.25 1.33-15.01 4s-9.21 6.62-13.36 11.87l7.17-15.87-31.74 3.11 8.7 4.06-3.11 83.54-5.71 6.54 38.59-2.73-8.82-4.06-10.16-34.66c4.32 4.74 8.6 8.2 12.85 10.38s8.9 3.27 13.93 3.27c4.06 0 7.88-.75 11.46-2.25 3.58-1.5 6.78-3.71 9.62-6.63 3.68-3.77 6.53-8.26 8.54-13.49 2.01-5.23 3.02-10.82 3.02-16.79 0-8.67-2.48-15.89-7.43-21.65-4.96-5.76-11.14-8.64-18.54-8.64zm-10.8 33.8c-2.16 2.52-4.89 3.78-8.19 3.78-1.69 0-3.14-.29-4.35-.86s-2.32-1.49-3.33-2.76c1.14-3.55 3.04-6.9 5.68-10.03 2.64-3.13 6.04-6.03 10.19-8.7 1.1 1.35 1.91 2.75 2.44 4.19.53 1.44.79 3.03.79 4.76.01 3.9-1.07 7.1-3.23 9.62zM412.79 54.01c-6.67-6.43-15.25-9.65-25.74-9.65-11.13 0-20.22 3.31-27.26 9.93-7.05 6.62-10.57 15.14-10.57 25.55 0 9.82 3.46 17.93 10.38 24.34s15.71 9.62 26.37 9.62c6.26 0 12.2-1.5 17.81-4.51 5.61-3 10.17-7.11 13.68-12.31 1.78-2.62 3.11-5.44 4-8.44.89-3 1.33-6.24 1.33-9.71-.01-10.12-3.34-18.39-10-24.82zm-28.98 16.06c-2.67 2.37-5.93 3.55-9.78 3.55-2.24 0-4.19-.38-5.84-1.14s-3.13-1.95-4.44-3.55c2.03-3.3 4.82-6.13 8.38-8.47s7.91-4.24 13.08-5.68c.89.85 1.54 1.82 1.97 2.92.42 1.1.63 2.33.63 3.68 0 3.42-1.33 6.32-4 8.69z"/>
  <path d="M472.74 16.68l-49.83 14.03 13.14 2.35 1.14 72.94-14.53 8.31 52.81-2.6-14.35-5.21zM543.45 94.25c-4.15 2.2-8.7 3.3-13.65 3.3-4.06 0-8.01-.64-11.84-1.94-3.83-1.29-7.73-3.29-11.71-6 1.82.72 3.72 1.26 5.71 1.62 1.99.36 4.13.54 6.41.54 9.27 0 16.98-2.29 23.14-6.86s9.24-10.24 9.24-17.01c0-6.73-3.34-12.31-10.03-16.76-6.69-4.44-15.17-6.67-25.45-6.67-5.37 0-10.29.87-14.76 2.6-4.47 1.74-8.39 4.3-11.77 7.68-3.51 3.51-6.23 7.63-8.16 12.35-1.93 4.72-2.89 9.62-2.89 14.69 0 9.61 3.52 17.32 10.57 23.14 7.05 5.82 16.43 8.73 28.15 8.73 6.01 0 11.83-.87 17.46-2.6 5.63-1.73 11.26-4.38 16.88-7.93l5.71 10.54-2.35-29.01c-2.96 4.2-6.51 7.39-10.66 9.59zm-45.38-23.26c-1.82-.61-3.41-1.47-4.76-2.57 1.82-4.06 4.33-7.29 7.52-9.68 3.19-2.39 7.06-3.92 11.58-4.6.89 1.06 1.54 2.18 1.97 3.36.42 1.19.63 2.52.63 4 0 3.05-1.06 5.54-3.17 7.49-2.12 1.95-4.85 2.92-8.19 2.92-1.9 0-3.76-.31-5.58-.92zM706.33 28.87c-7.11-6.47-17.12-9.71-30.02-9.71-1.27 0-2.98.09-5.14.25-2.16.17-5.52.51-10.09 1.02l-48.75 5.59 20.06 8.7-9.27 69.44-8.95 6.35 63.98 6.03-20.82-12.63-4-22.6c3.43 3.39 7.59 5.96 12.5 7.71 4.91 1.76 10.3 2.63 16.19 2.63 10.37 0 18.79-3.28 25.26-9.84 6.47-6.56 9.71-15.11 9.71-25.64.01-11.72-3.55-20.82-10.66-27.3zm-41.95 22.57c-3.55 4.21-8.19 7.52-13.9 9.93l5.84-26.79c1.56-.89 2.96-1.52 4.19-1.9 1.23-.38 2.48-.57 3.75-.57 1.86 0 3.24.56 4.13 1.68.89 1.12 1.33 2.87 1.33 5.24-.01 4.06-1.79 8.2-5.34 12.41zM732.83 36.96c4.46 1.88 10.27 2.82 17.42 2.82 7.15 0 12.95-.94 17.39-2.82 4.44-1.88 6.67-4.26 6.67-7.14s-2.22-5.27-6.67-7.17-10.24-2.86-17.39-2.86c-7.11 0-12.91.95-17.39 2.86-4.49 1.9-6.73 4.3-6.73 7.17.01 2.88 2.24 5.26 6.7 7.14z"/>
  <path d="M811.83 97.55l45.45-47.61-77.56-5.28.5-.18-63.35 2.35 17.33 6.86-4.44 54.08-14.16 5.71 64.49-1.99-2.1 3.33 72.68-6.6 3.36-37.45-9.71 15.3-32.49 11.48zm-31.51 13.58l-12.48-3.87-7.93-55.61 19.13-6.75 2.58 35.57 7.43-14.28 22.47-4.57-31.2 49.51zM858.17 44.61l2.6 35.87 7.43-14.28 22.47-4.57-33.52 53.19 72.68-6.6 3.37-37.45-9.71 15.29-32.5 11.49 45.45-47.6zM1008.1 51.09l9.33-4.25-27.29-2.98 4 19.61c-3.17-6.35-7.08-11.12-11.71-14.31-4.63-3.19-10-4.79-16.09-4.79-8.04 0-14.71 3.59-20 10.76-5.29 7.17-7.93 16.32-7.93 27.45 0 8.72 2.46 16.03 7.4 21.93 4.93 5.9 10.99 8.85 18.19 8.85 6.01 0 11.56-1.63 16.66-4.89s9.6-8.08 13.49-14.47l-4.76 19.36 27.93-3.49-7.3-5.59-1.92-53.19zm-21.71 30.44c-1.35.53-2.67.79-3.94.79-3.55 0-6.55-1.26-8.98-3.78-2.43-2.52-3.65-5.64-3.65-9.36 0-1.9.25-3.58.76-5.01.51-1.44 1.31-2.79 2.41-4.06 3.09 1.35 6.1 3.63 9.04 6.82 2.94 3.2 5.77 7.29 8.47 12.28-1.38 1.01-2.75 1.79-4.11 2.32z"/>
</svg>
